<mxfile host="drawio-plugin" modified="2024-06-11T18:21:12.865Z" agent="5.0 (Macintosh; Intel Mac OS X 10_15_7) AppleWebKit/537.36 (KHTML, like Gecko) Chrome/104.0.5112.102 Safari/537.36" version="20.5.3" etag="RFZDlQOuQVLBhuJz1KgK" type="embed"><diagram id="-NZCvJOlYVIJsy2IGn_z" name="Page-1"><mxGraphModel dx="1551" dy="568" grid="1" gridSize="10" guides="1" tooltips="1" connect="1" arrows="1" fold="1" page="1" pageScale="1" pageWidth="850" pageHeight="1100" math="0" shadow="0"><root><mxCell id="0"/><mxCell id="1" parent="0"/><mxCell id="2" value="" style="rounded=1;whiteSpace=wrap;html=1;fillColor=none;" parent="1" vertex="1"><mxGeometry x="-280" y="240" width="520" height="490" as="geometry"/></mxCell><mxCell id="3" value="" style="rounded=1;whiteSpace=wrap;html=1;fillColor=none;" parent="1" vertex="1"><mxGeometry x="280" y="330" width="390" height="330" as="geometry"/></mxCell><mxCell id="4" value="GET/api/health" style="endArrow=classic;html=1;rounded=0;fillColor=#d5e8d4;strokeColor=#82b366;strokeWidth=3;exitX=0.996;exitY=0.17;exitDx=0;exitDy=0;exitPerimeter=0;entryX=0;entryY=0.172;entryDx=0;entryDy=0;entryPerimeter=0;" parent="1" source="14" target="10" edge="1"><mxGeometry width="50" height="50" relative="1" as="geometry"><mxPoint x="-260" y="400" as="sourcePoint"/><mxPoint x="-140" y="400" as="targetPoint"/></mxGeometry></mxCell><mxCell id="5" style="edgeStyle=orthogonalEdgeStyle;rounded=0;orthogonalLoop=1;jettySize=auto;html=1;fontFamily=Helvetica;fontSize=12;fontColor=default;exitX=1.001;exitY=0.309;exitDx=0;exitDy=0;exitPerimeter=0;fillColor=#ffe6cc;strokeColor=#d79b00;strokeWidth=3;startArrow=classic;startFill=1;" parent="1" source="10" target="21" edge="1"><mxGeometry relative="1" as="geometry"/></mxCell><mxCell id="6" style="edgeStyle=orthogonalEdgeStyle;rounded=0;orthogonalLoop=1;jettySize=auto;html=1;entryX=0;entryY=0.5;entryDx=0;entryDy=0;fontFamily=Helvetica;fontSize=12;fontColor=default;fillColor=#f8cecc;strokeColor=#b85450;strokeWidth=3;startArrow=classic;startFill=1;" parent="1" source="10" target="26" edge="1"><mxGeometry relative="1" as="geometry"/></mxCell><mxCell id="7" style="edgeStyle=orthogonalEdgeStyle;rounded=0;orthogonalLoop=1;jettySize=auto;html=1;fontFamily=Helvetica;fontSize=12;fontColor=default;strokeWidth=3;fillColor=#e1d5e7;strokeColor=#9673a6;startArrow=classic;startFill=1;" parent="1" source="10" target="23" edge="1"><mxGeometry relative="1" as="geometry"><Array as="points"><mxPoint x="50" y="540"/><mxPoint x="50" y="570"/></Array></mxGeometry></mxCell><mxCell id="8" style="edgeStyle=orthogonalEdgeStyle;rounded=0;orthogonalLoop=1;jettySize=auto;html=1;entryX=0;entryY=0.5;entryDx=0;entryDy=0;fontFamily=Helvetica;fontSize=12;fontColor=default;fillColor=#dae8fc;strokeColor=#6c8ebf;strokeWidth=3;exitX=1.003;exitY=0.859;exitDx=0;exitDy=0;exitPerimeter=0;startArrow=classic;startFill=1;" parent="1" source="10" target="24" edge="1"><mxGeometry relative="1" as="geometry"/></mxCell><mxCell id="9" style="edgeStyle=orthogonalEdgeStyle;rounded=0;orthogonalLoop=1;jettySize=auto;html=1;fontFamily=Helvetica;fontSize=12;fontColor=default;fillColor=#d5e8d4;strokeColor=#82b366;strokeWidth=3;startArrow=classic;startFill=1;" parent="1" source="10" target="25" edge="1"><mxGeometry relative="1" as="geometry"><Array as="points"><mxPoint x="55" y="400"/><mxPoint x="55" y="350"/></Array></mxGeometry></mxCell><mxCell id="10" value="API Controllers" style="rounded=1;whiteSpace=wrap;html=1;" parent="1" vertex="1"><mxGeometry x="-120" y="350" width="120" height="290" as="geometry"/></mxCell><mxCell id="11" value="&lt;div&gt;GET/accounts/:msaId&lt;/div&gt;&lt;div&gt;&lt;div&gt;POST/accounts/siwf&lt;/div&gt;&lt;/div&gt;" style="endArrow=classic;html=1;rounded=0;entryX=0.008;entryY=0.307;entryDx=0;entryDy=0;fillColor=#ffe6cc;strokeColor=#d79b00;strokeWidth=3;entryPerimeter=0;exitX=0.998;exitY=0.31;exitDx=0;exitDy=0;exitPerimeter=0;" parent="1" source="14" target="10" edge="1"><mxGeometry width="50" height="50" relative="1" as="geometry"><mxPoint x="-260" y="439" as="sourcePoint"/><mxPoint x="-140" y="470" as="targetPoint"/></mxGeometry></mxCell><mxCell id="12" value="&lt;div&gt;GET/delegation/:msaId&lt;/div&gt;" style="endArrow=classic;html=1;rounded=0;entryX=-0.008;entryY=0.445;entryDx=0;entryDy=0;fillColor=#f8cecc;strokeColor=#b85450;strokeWidth=3;entryPerimeter=0;exitX=1.005;exitY=0.446;exitDx=0;exitDy=0;exitPerimeter=0;" parent="1" source="14" target="10" edge="1"><mxGeometry width="50" height="50" relative="1" as="geometry"><mxPoint x="-270" y="479" as="sourcePoint"/><mxPoint x="-130" y="490" as="targetPoint"/></mxGeometry></mxCell><mxCell id="13" value="&lt;div&gt;POST/handles&lt;/div&gt;&lt;div&gt;POST/handles/change&lt;/div&gt;&lt;div&gt;GET/handles/:msaId&lt;/div&gt;" style="endArrow=classic;html=1;rounded=0;fillColor=#e1d5e7;strokeColor=#9673a6;strokeWidth=3;exitX=1.018;exitY=0.724;exitDx=0;exitDy=0;exitPerimeter=0;entryX=0.014;entryY=0.659;entryDx=0;entryDy=0;entryPerimeter=0;" parent="1" target="10" edge="1"><mxGeometry width="50" height="50" relative="1" as="geometry"><mxPoint x="-407.8399999999999" y="539.96" as="sourcePoint"/><mxPoint x="-120" y="540" as="targetPoint"/></mxGeometry></mxCell><mxCell id="14" value="&lt;u&gt;&lt;b&gt;&lt;font color=&quot;#000000&quot;&gt;Provider Backend&lt;/font&gt;&lt;/b&gt;&lt;/u&gt;" style="rounded=1;whiteSpace=wrap;html=1;fillColor=#fff2cc;strokeColor=#d6b656;" parent="1" vertex="1"><mxGeometry x="-490" y="350" width="120" height="290" as="geometry"/></mxCell><mxCell id="15" value="" style="endArrow=classic;html=1;rounded=0;fontSize=12;startSize=8;endSize=8;edgeStyle=orthogonalEdgeStyle;strokeWidth=3;fillColor=#fff2cc;strokeColor=#d6b656;dashed=1;entryX=0.467;entryY=1.069;entryDx=0;entryDy=0;entryPerimeter=0;exitX=0.5;exitY=1;exitDx=0;exitDy=0;" parent="1" source="29" target="18" edge="1"><mxGeometry width="50" height="50" relative="1" as="geometry"><mxPoint x="560" y="560" as="sourcePoint"/><mxPoint x="-520" y="720" as="targetPoint"/><Array as="points"><mxPoint x="560" y="750"/><mxPoint x="-434" y="750"/></Array></mxGeometry></mxCell><mxCell id="16" value="Callback on MSA created and&lt;div&gt;on Delegation created&lt;/div&gt;" style="edgeLabel;html=1;align=center;verticalAlign=middle;resizable=0;points=[];fontSize=12;" parent="15" vertex="1" connectable="0"><mxGeometry x="0.0564" relative="1" as="geometry"><mxPoint x="275" as="offset"/></mxGeometry></mxCell><mxCell id="17" value="&lt;div&gt;POST/keys/add&lt;/div&gt;&lt;div&gt;GET/keys/:msaId&lt;/div&gt;" style="endArrow=classic;html=1;rounded=0;fillColor=#dae8fc;strokeColor=#6c8ebf;strokeWidth=3;exitX=1.008;exitY=0.858;exitDx=0;exitDy=0;exitPerimeter=0;entryX=-0.007;entryY=0.861;entryDx=0;entryDy=0;entryPerimeter=0;" parent="1" source="14" target="10" edge="1"><mxGeometry width="50" height="50" relative="1" as="geometry"><mxPoint x="-409.99999999999994" y="600" as="sourcePoint"/><mxPoint x="-130" y="600" as="targetPoint"/></mxGeometry></mxCell><mxCell id="18" value="&lt;font color=&quot;#000000&quot;&gt;Global&lt;/font&gt;&lt;div&gt;&lt;font color=&quot;#000000&quot;&gt;Webhook&lt;/font&gt;&lt;/div&gt;" style="rounded=1;whiteSpace=wrap;html=1;fillColor=#fff2cc;strokeColor=#d6b656;" parent="1" vertex="1"><mxGeometry x="-490" y="640" width="120" height="40" as="geometry"/></mxCell><mxCell id="19" style="edgeStyle=orthogonalEdgeStyle;rounded=0;orthogonalLoop=1;jettySize=auto;html=1;fontFamily=Helvetica;fontSize=12;fontColor=default;fillColor=#ffe6cc;strokeColor=#d79b00;strokeWidth=3;entryX=0;entryY=0.25;entryDx=0;entryDy=0;" parent="1" source="21" target="33" edge="1"><mxGeometry relative="1" as="geometry"><mxPoint x="330" y="500" as="targetPoint"/><Array as="points"><mxPoint x="260" y="430"/><mxPoint x="260" y="490"/></Array></mxGeometry></mxCell><mxCell id="20" style="edgeStyle=orthogonalEdgeStyle;rounded=0;orthogonalLoop=1;jettySize=auto;html=1;fontFamily=Helvetica;fontSize=12;fontColor=default;fillColor=#dae8fc;strokeColor=#6c8ebf;strokeWidth=3;entryX=0;entryY=0.75;entryDx=0;entryDy=0;" parent="1" target="33" edge="1"><mxGeometry relative="1" as="geometry"><mxPoint x="209.9939393939394" y="650.0181818181819" as="sourcePoint"/><mxPoint x="328.57142857142844" y="520.1785714285714" as="targetPoint"/><Array as="points"><mxPoint x="270" y="650"/><mxPoint x="270" y="520"/></Array></mxGeometry></mxCell><mxCell id="21" value="Accounts Service" style="shape=parallelogram;perimeter=parallelogramPerimeter;whiteSpace=wrap;html=1;fixedSize=1;rounded=1;strokeColor=#d79b00;align=center;verticalAlign=middle;fontFamily=Helvetica;fontSize=12;fillColor=#ffe6cc;fontColor=#000000;" parent="1" vertex="1"><mxGeometry x="100" y="399.75" width="120" height="60" as="geometry"/></mxCell><mxCell id="22" style="edgeStyle=orthogonalEdgeStyle;rounded=0;orthogonalLoop=1;jettySize=auto;html=1;fontFamily=Helvetica;fontSize=12;fontColor=default;fillColor=#e1d5e7;strokeColor=#9673a6;strokeWidth=3;entryX=0;entryY=0.5;entryDx=0;entryDy=0;" parent="1" source="23" target="33" edge="1"><mxGeometry relative="1" as="geometry"><mxPoint x="330" y="500" as="targetPoint"/><Array as="points"><mxPoint x="260" y="570"/><mxPoint x="260" y="505"/></Array></mxGeometry></mxCell><mxCell id="23" value="Handles Service" style="shape=parallelogram;perimeter=parallelogramPerimeter;whiteSpace=wrap;html=1;fixedSize=1;rounded=1;strokeColor=#9673a6;align=center;verticalAlign=middle;fontFamily=Helvetica;fontSize=12;fillColor=#e1d5e7;fontColor=#000000;" parent="1" vertex="1"><mxGeometry x="100" y="540.25" width="120" height="60" as="geometry"/></mxCell><mxCell id="24" value="Keys Service" style="shape=parallelogram;perimeter=parallelogramPerimeter;whiteSpace=wrap;html=1;fixedSize=1;rounded=1;strokeColor=#6c8ebf;align=center;verticalAlign=middle;fontFamily=Helvetica;fontSize=12;fillColor=#dae8fc;fontColor=#000000;" parent="1" vertex="1"><mxGeometry x="90" y="620" width="140" height="60" as="geometry"/></mxCell><mxCell id="25" value="Api Service" style="shape=parallelogram;perimeter=parallelogramPerimeter;whiteSpace=wrap;html=1;fixedSize=1;rounded=1;strokeColor=#82b366;align=center;verticalAlign=middle;fontFamily=Helvetica;fontSize=12;fillColor=#d5e8d4;fontColor=#000000;" parent="1" vertex="1"><mxGeometry x="110" y="320" width="120" height="60" as="geometry"/></mxCell><mxCell id="26" value="Delegation Service" style="shape=parallelogram;perimeter=parallelogramPerimeter;whiteSpace=wrap;html=1;fixedSize=1;rounded=1;strokeColor=#b85450;align=center;verticalAlign=middle;fontFamily=Helvetica;fontSize=12;fillColor=#f8cecc;fontColor=#000000;" parent="1" vertex="1"><mxGeometry x="90" y="470" width="130" height="60" as="geometry"/></mxCell><mxCell id="27" value="&lt;h1 style=&quot;margin-top: 0px;&quot;&gt;Worker&lt;/h1&gt;&lt;p&gt;BullMQ is used to manage transaction related (on chain) jobs.&lt;/p&gt;" style="text;html=1;whiteSpace=wrap;overflow=hidden;rounded=0;fontFamily=Helvetica;fontSize=12;fontColor=default;" parent="1" vertex="1"><mxGeometry x="310" y="339.75" width="240" height="120" as="geometry"/></mxCell><mxCell id="28" value="&lt;h1 style=&quot;margin-top: 0px;&quot;&gt;&lt;span style=&quot;background-color: initial;&quot;&gt;API&lt;/span&gt;&lt;/h1&gt;&lt;h1 style=&quot;margin-top: 0px; line-height: 20%;&quot;&gt;&lt;span style=&quot;background-color: initial; font-size: 12px; font-weight: normal;&quot;&gt;**RPC jobs: can be executed directly by the service.&lt;/span&gt;&lt;br&gt;&lt;/h1&gt;&lt;p style=&quot;line-height: 20%;&quot;&gt;**Extrinsic jobs: must use the queue.&lt;/p&gt;" style="text;html=1;whiteSpace=wrap;overflow=hidden;rounded=0;fontFamily=Helvetica;fontSize=12;fontColor=default;" parent="1" vertex="1"><mxGeometry x="-235" y="250" width="325" height="100" as="geometry"/></mxCell><mxCell id="29" value="Webhook Publisher" style="rounded=1;whiteSpace=wrap;html=1;strokeColor=#d6b656;align=center;verticalAlign=middle;fontFamily=Helvetica;fontSize=12;fillColor=#fff2cc;fontColor=#000000;" parent="1" vertex="1"><mxGeometry x="500" y="570" width="120" height="60" as="geometry"/></mxCell><mxCell id="30" style="edgeStyle=orthogonalEdgeStyle;rounded=0;orthogonalLoop=1;jettySize=auto;html=1;entryX=0.5;entryY=0;entryDx=0;entryDy=0;fontFamily=Helvetica;fontSize=12;fontColor=default;fillColor=#fff2cc;strokeColor=#d6b656;strokeWidth=3;" parent="1" source="31" target="29" edge="1"><mxGeometry relative="1" as="geometry"/></mxCell><mxCell id="31" value="Transaction Notifier" style="shape=hexagon;perimeter=hexagonPerimeter2;whiteSpace=wrap;html=1;fixedSize=1;rounded=1;strokeColor=#d6b656;align=center;verticalAlign=middle;fontFamily=Helvetica;fontSize=12;fillColor=#fff2cc;fontColor=#000000;" parent="1" vertex="1"><mxGeometry x="485" y="470.25" width="150" height="70" as="geometry"/></mxCell><mxCell id="32" style="edgeStyle=orthogonalEdgeStyle;rounded=0;orthogonalLoop=1;jettySize=auto;html=1;fontFamily=Helvetica;fontSize=12;fontColor=default;fillColor=#fff2cc;strokeColor=#d6b656;strokeWidth=3;" parent="1" source="33" target="31" edge="1"><mxGeometry relative="1" as="geometry"/></mxCell><mxCell id="33" value="Transaction&lt;div&gt;Publisher&lt;/div&gt;" style="shape=hexagon;perimeter=hexagonPerimeter2;whiteSpace=wrap;html=1;fixedSize=1;rounded=1;strokeColor=#d6b656;align=center;verticalAlign=middle;fontFamily=Helvetica;fontSize=12;fillColor=#fff2cc;fontColor=#000000;" parent="1" vertex="1"><mxGeometry x="330" y="470" width="120" height="70.25" as="geometry"/></mxCell></root></mxGraphModel></diagram></mxfile>